<svg xmlns="http://www.w3.org/2000/svg" fill="none" viewBox="0 0 24 24" id="event"><path fill="#e76f51" fill-rule="evenodd" d="M4.5 4.25C3.5335 4.25 2.75 5.0335 2.75 6L2.75 21C2.75 21.9665 3.5335 22.75 4.5 22.75H19.5C20.4665 22.75 21.25 21.9665 21.25 21V20C21.25 19.5858 20.9142 19.25 20.5 19.25C20.0858 19.25 19.75 19.5858 19.75 20V21C19.75 21.1381 19.6381 21.25 19.5 21.25H4.5C4.36193 21.25 4.25 21.1381 4.25 21L4.25 6C4.25 5.86193 4.36193 5.75 4.5 5.75L19.5 5.75C19.6381 5.75 19.75 5.86193 19.75 6V16C19.75 16.4142 20.0858 16.75 20.5 16.75C20.9142 16.75 21.25 16.4142 21.25 16V6C21.25 5.0335 20.4665 4.25 19.5 4.25L4.5 4.25Z" clip-rule="evenodd" class="color000000 svgShape"></path><path fill="#e76f51" fill-rule="evenodd" d="M8 1.25C7.58579 1.25 7.25 1.58579 7.25 2V5C7.25 5.41421 7.58579 5.75 8 5.75 8.41421 5.75 8.75 5.41421 8.75 5V2C8.75 1.58579 8.41421 1.25 8 1.25zM16 1.25C15.5858 1.25 15.25 1.58579 15.25 2V5C15.25 5.41421 15.5858 5.75 16 5.75 16.4142 5.75 16.75 5.41421 16.75 5V2C16.75 1.58579 16.4142 1.25 16 1.25zM18.0303 8.96967C18.3232 9.26256 18.3232 9.73744 18.0303 10.0303L11.0303 17.0303C10.8897 17.171 10.6989 17.25 10.5 17.25 10.3011 17.25 10.1103 17.171 9.96967 17.0303L5.96967 13.0303C5.67678 12.7374 5.67678 12.2626 5.96967 11.9697 6.26256 11.6768 6.73744 11.6768 7.03033 11.9697L10.5 15.4393 16.9697 8.96967C17.2626 8.67678 17.7374 8.67678 18.0303 8.96967z" clip-rule="evenodd" class="color000000 svgShape"></path></svg>