<svg xmlns="http://www.w3.org/2000/svg" fill="none" viewBox="0 0 24 24" id="Gallery"><path fill="#e76f51" fill-rule="evenodd" d="M16 6.75C15.3097 6.75 14.75 7.30964 14.75 8 14.75 8.69036 15.3097 9.25 16 9.25 16.6904 9.25 17.25 8.69036 17.25 8 17.25 7.30964 16.6904 6.75 16 6.75zM13.25 8C13.25 6.48122 14.4812 5.25 16 5.25 17.5188 5.25 18.75 6.48122 18.75 8 18.75 9.51878 17.5188 10.75 16 10.75 14.4812 10.75 13.25 9.51878 13.25 8zM6.36217 11.6024C5.78516 11.0254 4.85959 10.9946 4.24547 11.5319L2.49389 13.0646C2.18216 13.3373 1.70834 13.3057 1.43558 12.994 1.16282 12.6823 1.19441 12.2085 1.50613 11.9357L3.25772 10.4031C4.46614 9.34572 6.28742 9.40636 7.42283 10.5418L11.7126 14.8315C12.1421 15.261 12.8182 15.3196 13.3152 14.9703L13.6134 14.7607C15.0437 13.7555 16.9788 13.872 18.2782 15.0415L21.5017 17.9427C21.8096 18.2198 21.8346 18.694 21.5575 19.0019 21.2804 19.3097 20.8062 19.3347 20.4983 19.0576L17.2748 16.1564C16.4951 15.4547 15.334 15.3849 14.4759 15.988L14.1777 16.1975C13.0843 16.9659 11.5968 16.8371 10.6519 15.8922L6.36217 11.6024z" clip-rule="evenodd" class="color111111 svgShape"></path><path fill="#e76f51" fill-rule="evenodd" d="M11.9426 1.25H12.0574C14.3658 1.24999 16.1748 1.24998 17.5863 1.43975C19.031 1.63399 20.1711 2.03933 21.0659 2.93414C22.2536 4.12187 22.5836 5.74802 22.694 7.96266C22.7146 8.37636 22.3959 8.72845 21.9822 8.74907C21.5685 8.76969 21.2165 8.45104 21.1958 8.03734C21.0876 5.86509 20.765 4.75455 20.0052 3.9948C19.4356 3.42514 18.6648 3.09825 17.3864 2.92637C16.0865 2.75159 14.3782 2.75 12 2.75C9.62178 2.75 7.91357 2.75159 6.61359 2.92637C5.33518 3.09825 4.56446 3.42514 3.99481 3.9948C3.42515 4.56445 3.09826 5.33517 2.92638 6.61358C2.7516 7.91356 2.75001 9.62178 2.75001 12C2.75001 14.3782 2.7516 16.0864 2.92638 17.3864C3.09826 18.6648 3.42515 19.4355 3.99481 20.0052C4.56446 20.5749 5.33518 20.9018 6.61359 21.0736C7.91357 21.2484 9.62178 21.25 12 21.25C14.3782 21.25 16.0865 21.2484 17.3864 21.0736C18.6648 20.9018 19.4356 20.5749 20.0052 20.0052C20.5749 19.4355 20.9018 18.6648 21.0736 17.3864C21.2484 16.0864 21.25 14.3782 21.25 12C21.25 11.5858 21.5858 11.25 22 11.25C22.4142 11.25 22.75 11.5858 22.75 12V12.0574C22.75 14.3658 22.75 16.1748 22.5603 17.5863C22.366 19.031 21.9607 20.1711 21.0659 21.0659C20.1711 21.9607 19.031 22.366 17.5863 22.5603C16.1748 22.75 14.3658 22.75 12.0574 22.75H11.9426C9.63424 22.75 7.8252 22.75 6.41372 22.5603C4.96898 22.366 3.82896 21.9607 2.93415 21.0659C2.03934 20.1711 1.634 19.031 1.43976 17.5863C1.24999 16.1748 1.25 14.3658 1.25001 12.0574V11.9426C1.25 9.63423 1.24999 7.82519 1.43976 6.41371C1.634 4.96897 2.03934 3.82895 2.93415 2.93414C3.82896 2.03933 4.96898 1.63399 6.41372 1.43975C7.8252 1.24998 9.63424 1.24999 11.9426 1.25Z" clip-rule="evenodd" class="color111111 svgShape"></path></svg>